<?xml version="1.0" standalone="yes"?>
<svg xmlns="http://www.w3.org/2000/svg" width="512" height="512">
<path style="fill:#fbfefe; stroke:none;" d="M0 0L0 512L142 512L142 511C129.121 501.71 138.701 490.879 133.397 479.275C132.002 476.224 127.61 475.157 125.001 473.401C119.993 470.032 115.734 465.4 112.995 460C104.328 442.908 109 416.637 109 398L109 120C109 90.2421 104.445 56.2242 110.096 27C112.475 14.6965 122.423 3.24188 135 1C124.258 -3.50745 105.682 0 94 0L0 0z"/>
<path style="fill:#4bcedf; stroke:none;" d="M109 195L403 195L403 68C403 50.8115 406.99 27.8215 396.363 13C382.85 -5.84509 354.138 0 334 0L176 0C156.554 0 130.039 -5.3233 116.39 12.0008C105.104 26.3264 109 48.9896 109 66L109 195z"/>
<path style="fill:#fbfefe; stroke:none;" d="M377 0L377 1C413.382 7.48532 403 63.9183 403 90L403 376C403 400.404 407.165 429.201 401.497 453C398.84 464.156 389.578 474.935 378 477C378 489.052 381.004 503.062 370 511L370 512L512 512L512 0L377 0z"/>
<path style="fill:#7de3eb; stroke:none;" d="M364.044 31.7431C355.895 35.0077 359 51.0207 359 58L359 140C359 146.916 356.718 167.893 369.985 163.091C379.228 159.745 376 143.669 376 136L376 54C376 46.6652 377.758 26.249 364.044 31.7431z"/>
<path style="fill:#60909a; stroke:none;" d="M149 58L149 59L166 59L149 58z"/>
<path style="fill:#5f6972; stroke:none;" d="M159 75C165.716 74.94 177.867 69.5068 169.682 61.3179C165.927 57.5607 151.585 57.5489 147.059 60.0278C141.012 63.3393 143 73.2725 143 79L143 120C143 125.631 141.561 133.664 143.742 138.945C146.147 144.766 153.812 144.858 157.142 139.891C160.465 134.934 159 126.669 159 121L159 103L159 75z"/>
<path style="fill:#60909a; stroke:none;" d="M145 60L146 61L145 60M169 60L170 61L169 60M144 61L145 62L144 61M170 61L171 62L170 61M142 65L142 137L143 137L143 88L142 65M172.333 66.6667L172.667 67.3333L172.333 66.6667M171 70L172 71L171 70M168 73L169 74L168 73M166.667 74.3333L167.333 74.6667L166.667 74.3333M158.333 137.667L158.667 138.333L158.333 137.667M143 139L144 140L143 139M157 140L158 141L157 140M156 141L157 142L156 141M155 142L156 143L155 142M147.667 143.333L148.333 143.667L147.667 143.333M153 143L154 144L153 143z"/>
<path style="fill:#7de3eb; stroke:none;" d="M109 195L109 224L127 223L127 392C127 412.882 121.262 444.424 132.479 463C143.693 481.571 169.139 478.993 188 479C237.949 479.019 288.15 480.222 338 478.039C357.738 477.175 383.282 483.662 396.557 464.985C409.887 446.232 403 409.939 403 388L403 195L109 195z"/>
<path style="fill:#4bcedf; stroke:none;" d="M153 478L153 477C124.203 471.864 127 437.793 127 416L127 223C122.833 223 114.012 221.328 110.603 224.028C107.284 226.657 109 236.214 109 240L109 287L109 406C109 422.854 105.134 445.502 112.995 461C121.418 477.604 136.69 478 153 478z"/>
<path style="fill:#fbfefe; stroke:none;" d="M364.058 228.032C355.13 232.76 359 254.597 359 263L359 370C359 377.369 354.916 408.981 369.981 403.393C379.391 399.902 375 372.332 375 364L375 257C375 250.719 378.273 220.503 364.058 228.032M365.019 416.758C355.105 420.387 358.835 440.469 369.981 436.392C378.973 433.103 375.919 412.768 365.019 416.758z"/>
<path style="fill:#60909a; stroke:none;" d="M134 477L134 478L137 478L134 477z"/>
<path style="fill:#4bcedf; stroke:none;" d="M375 477L376 478L375 477z"/>
<path style="fill:#60909a; stroke:none;" d="M376.667 477.333L377.333 477.667L376.667 477.333z"/>
<path style="fill:#5f6972; stroke:none;" d="M134 478C134 486.412 131.431 499.825 136.653 506.956C143.05 515.691 171.37 515.045 177.262 505.985C181.947 498.779 180 487.169 180 479L134 478z"/>
<path style="fill:#60909a; stroke:none;" d="M142 478L142 479L179 479C169.202 474.889 152.649 478 142 478M333 478L333 479L372 479C361.726 474.689 344.172 478 333 478z"/>
<path style="fill:#5f6972; stroke:none;" d="M332 479C332 487.451 329.999 499.483 335.147 506.815C341.159 515.377 369.19 515.093 375.347 506.906C380.611 499.907 378 486.318 378 478L332 479z"/>
<path style="fill:#fbfefe; stroke:none;" d="M180 479C180 490.403 182.219 504.204 171 511L171 512L341 512L341 511C329.781 504.204 332 490.403 332 479L180 479z"/>
<path style="fill:#60909a; stroke:none;" d="M175 508L176 509L175 508M371 510L372 511L371 510z"/>
</svg>
